# xmcd
#
# Track frame offsets: 
#        150
#        1910
#        24148
#        44453
#        69204
#        87586
#        107688
#        126257
#        142286
#        162514
#        185391
#        202280
#        224545
#
# Disc length: 3277 seconds
#
# Revision: 0
# Processed by: cddbd v1.5.2PL0 Copyright (c) Steve Scherf et al.
# Submitted via: ExactAudioCopy v0.99pb5
#
DISCID=bf0ccb0d
DTITLE=Various Artist - Oddisee Presents: The Remixture, Vol.1
DYEAR=2006
DGENRE=Hip-Hop
TTITLE0=Oddisee - Intro
TTITLE1=De La Soul - Stakes Is High (Remix)
TTITLE2=The Fugees - Fu-Gee-La (feat. Oddisee) (Remix)
TTITLE3=Glenn Lewis - Back For More (Remix)
TTITLE4=Organized Konfusion - Somehow, Someway (Remix)
TTITLE5=Memphis Bleek - Round Here (feat. T.I. and Oddisee) (Remix)
TTITLE6=50 Cent - 21 Questions (feat. Nate Dogg) (Remix)
TTITLE7=Michael Jackson - Butterflies (feat. Oddisee) (Remix)
TTITLE8=N.E.R.D. - She Wants To Move (Remix)
TTITLE9=Zap Mama - Yelling Away (feat. Common, Talib Kweli, and Oddisee)
TTITLE9=(Remix)
TTITLE10=Mos Def - Mathematics (Remix)
TTITLE11=Jay-Z And Common - I Can't Knock H.E.R. (Remix)
TTITLE12=Wordsworth - Run (Remix)
EXTD=
EXTT0=
EXTT1=
EXTT2=
EXTT3=
EXTT4=
EXTT5=
EXTT6=
EXTT7=
EXTT8=
EXTT9=
EXTT10=
EXTT11=
EXTT12=
PLAYORDER=
